HIERARCHY
ROOT root
{
	OFFSET	0	13.1	24.9
	CHANNELS 6  Xposition Yposition Zposition Xrotation Yrotation Zrotation
	JOINT spine_1
	{
		OFFSET	0	9.99999	0
		CHANNELS 3  Xrotation Yrotation Zrotation
		JOINT spine_2
		{
			OFFSET	0	112	-10
			CHANNELS 3  Xrotation Yrotation Zrotation
			JOINT spine_3
			{
				OFFSET	0	206.5	19.3
				CHANNELS 3  Xrotation Yrotation Zrotation
				JOINT spine_4
				{
					OFFSET	0	110.4	14.6
					CHANNELS 3  Xrotation Yrotation Zrotation
					JOINT neck_1
					{
						OFFSET	0	71.8	-50.3
						CHANNELS 3  Xrotation Yrotation Zrotation
						JOINT neck_2
						{
							OFFSET	0	86.2	-25.8
							CHANNELS 3  Xrotation Yrotation Zrotation
							JOINT head_ee
							{
								OFFSET	0	179.8	-8.7
								CHANNELS 3  Xrotation Yrotation Zrotation
								End Site
								{
									OFFSET	1	0	0
								}
							}
						}
					}
					JOINT left_clavicle
					{
						OFFSET	-43.2	22.4	-70.8
						CHANNELS 3  Xrotation Yrotation Zrotation
						JOINT left_shoulder
						{
							OFFSET	-93.9	-5.79999	48.7
							CHANNELS 3  Xrotation Yrotation Zrotation
							JOINT left_elbow
							{
								OFFSET	-291.4	-30.8	15.2
								CHANNELS 3  Xrotation Yrotation Zrotation
								JOINT left_lowarm_twist
								{
									OFFSET	-110.7	-3.89999	13.6
									CHANNELS 3  Xrotation Yrotation Zrotation
									JOINT left_hand
									{
										OFFSET	-110.7	-3.89999	13.6
										CHANNELS 3  Xrotation Yrotation Zrotation
										JOINT left_ee
										{
											OFFSET	-80.8	-5.10001	12.1
											CHANNELS 3  Xrotation Yrotation Zrotation
											End Site
											{
												OFFSET	1	0	0
											}
										}
									}
								}
							}
						}
					}
					JOINT right_clavicle
					{
						OFFSET	43.2	22.4	-70.8
						CHANNELS 3  Xrotation Yrotation Zrotation
						JOINT right_shoulder
						{
							OFFSET	93.9	-5.79999	48.7
							CHANNELS 3  Xrotation Yrotation Zrotation
							JOINT right_elbow
							{
								OFFSET	291.4	-30.8	15.2
								CHANNELS 3  Xrotation Yrotation Zrotation
								JOINT right_lowarm_twist
								{
									OFFSET	110.7	-3.89999	13.6
									CHANNELS 3  Xrotation Yrotation Zrotation
									JOINT right_hand
									{
										OFFSET	110.7	-3.89999	13.6
										CHANNELS 3  Xrotation Yrotation Zrotation
										JOINT right_ee
										{
											OFFSET	80.8	-5.10001	12.1
											CHANNELS 3  Xrotation Yrotation Zrotation
											End Site
											{
												OFFSET	1	0	0
											}
										}
									}
								}
							}
						}
					}
				}
			}
		}
	}
	JOINT left_hip
	{
		OFFSET	-82.8	-127.5	0.300001
		CHANNELS 3  Xrotation Yrotation Zrotation
		JOINT left_knee
		{
			OFFSET	-28.2	-396.7	2.2
			CHANNELS 3  Xrotation Yrotation Zrotation
			JOINT left_ankle
			{
				OFFSET	-11.7	-411.3	35.4
				CHANNELS 3  Xrotation Yrotation Zrotation
				JOINT left_toes
				{
					OFFSET	0	-60	-88.6
					CHANNELS 3  Xrotation Yrotation Zrotation
					JOINT left_foot_ee
					{
						OFFSET	-22.5	-16.5	-42.2
						CHANNELS 3  Xrotation Yrotation Zrotation
						End Site
						{
							OFFSET	1	0	0
						}
					}
				}
			}
		}
	}
	JOINT right_hip
	{
		OFFSET	82.8	-127.5	0.300001
		CHANNELS 3  Xrotation Yrotation Zrotation
		JOINT right_knee
		{
			OFFSET	28.2	-396.7	2.2
			CHANNELS 3  Xrotation Yrotation Zrotation
			JOINT right_ankle
			{
				OFFSET	11.7	-411.3	35.4
				CHANNELS 3  Xrotation Yrotation Zrotation
				JOINT right_toes
				{
					OFFSET	0	-60	-88.6
					CHANNELS 3  Xrotation Yrotation Zrotation
					JOINT right_foot_ee
					{
						OFFSET	22.5	-16.5	-42.2
						CHANNELS 3  Xrotation Yrotation Zrotation
						End Site
						{
							OFFSET	1	0	0
						}
					}
				}
			}
		}
	}
}
MOTION
Frames: 9
Frame Time: 0.02
2800.94 716.97 -1473.77 1.70712410594 55.2967034835 -11.5180845597 -1.53319 0.817216 4.87261 -1.52013 0.505887 4.9146 -1.46417 -0.664643 4.8957 -1.49758 0.115906 4.93915 3.97389 14.1529 -9.79706 5.96843 32.8115 -10.8329 -0.0 0.0 -0.0 5.74397 25.7204 10.5175 -7.75451 -38.2063 23.7972 4.1407 -63.9906 2.58761 -42.0611 -3.17298 4.20473 -11.0906 26.9709 -69.7657 -0.0 0.0 -0.0 10.3681 20.1057 -20.2212 -28.8138 21.3377 -62.389 0.567466 15.7011 -0.078244 -15.8311 0.818373 -1.84501 4.42883 -5.67661 -33.3855 0.0 0.0 0.0 -27.492 16.921 26.5404 -6.83951 0.220581 1.02587 18.2564 7.51534 -2.51228 6.18594 -0.0 -0.0 -0.0 0.0 -0.0 30.4505 34.8701 -6.39019 -14.0232 -0.31895 -2.12305 21.0597 -15.9294 2.89596 -8.65625 0.0 0.0 0.0 0.0 0.0 
2743.01030853 719.457 -1495.57577552 4.73593731937 61.3508200734 -15.1409143258 -1.48565 0.999498 5.12563 -1.47129 0.671764 5.17864 -1.39643 -0.55895 5.192 -1.43393 0.266892 5.21511 5.37172 13.3762 -10.1215 7.46105 31.615 -11.6545 -0.0 0.0 -0.0 2.68387 22.5481 6.3672 -16.3993 -32.9074 28.8501 3.30555 -58.5743 1.85437 -44.3974 -3.4305 4.3583 -10.52 23.4217 -69.9925 -0.0 0.0 -0.0 12.27 21.2557 -24.46 -23.3931 22.0893 -61.6018 0.640103 17.5933 -0.0990559 -11.6973 0.555782 -1.38586 4.97365 -5.22429 -37.6813 0.0 0.0 0.0 -27.3498 16.8836 24.1775 -11.796 0.303182 1.78171 14.8006 10.8713 -2.06994 5.23118 -0.0 -0.0 -0.0 0.0 -0.0 24.8465 33.0547 -3.6479 -9.61502 -0.274896 -1.44827 9.63937 -16.7221 1.38821 -6.90798 0.0 0.0 0.0 0.0 0.0 
2713.29758278 727.02 -1501.38489461 4.4438044896 63.8642913696 -14.6168188099 -1.54636 1.0503 5.33279 -1.53083 0.709335 5.38859 -1.44851 -0.576493 5.40437 -1.48913 0.282964 5.42759 5.24611 13.3174 -10.0349 7.29097 31.454 -11.505 -0.0 0.0 -0.0 2.23572 21.6728 5.69792 -18.537 -32.1524 30.8403 2.86777 -54.8469 1.48823 -45.2752 -3.52883 4.41327 -10.3929 22.6676 -69.7174 -0.0 0.0 -0.0 13.1227 21.1205 -26.4463 -20.4414 22.6835 -61.2638 0.688684 18.8373 -0.114243 -10.4785 0.484773 -1.24704 5.02501 -5.11669 -38.0753 0.0 0.0 0.0 -25.768 17.4083 23.3173 -12.6324 0.310659 1.90982 13.3972 11.706 -1.88555 4.8976 -0.0 -0.0 -0.0 0.0 -0.0 21.2841 32.1621 -3.63993 -8.40723 -0.253776 -1.26414 7.07646 -16.8793 1.02771 -6.79253 0.0 0.0 0.0 0.0 0.0 
2713.74949841 727.02 -1502.7802074 4.3044647251 62.9524373268 -14.4610010032 -1.54636 1.0503 5.33279 -1.53083 0.709335 5.38859 -1.44851 -0.576493 5.40437 -1.48913 0.282964 5.42759 5.24611 13.3174 -10.0349 7.29097 31.454 -11.505 -0.0 0.0 -0.0 2.23572 21.6728 5.69792 -18.537 -32.1524 30.8403 2.86777 -54.8469 1.48823 -45.2752 -3.52883 4.41327 -10.3929 22.6676 -69.7174 -0.0 0.0 -0.0 13.1227 21.1205 -26.4463 -20.4414 22.6835 -61.2638 0.688684 18.8373 -0.114243 -10.4785 0.484773 -1.24704 5.02501 -5.11669 -38.0753 0.0 0.0 0.0 -25.768 17.4083 23.3173 -12.6324 0.310659 1.90982 13.3972 11.706 -1.88555 4.8976 -0.0 -0.0 -0.0 0.0 -0.0 21.2841 32.1621 -3.63993 -8.40723 -0.253776 -1.26414 7.07646 -16.8793 1.02771 -6.79253 0.0 0.0 0.0 0.0 0.0 
2685.54265672 726.129 -1510.34687881 6.50171916781 63.2710596994 -17.2465097324 -1.69878 1.11672 5.7271 -1.68086 0.750649 5.78628 -1.58635 -0.643926 5.79908 -1.63314 0.278405 5.82798 5.40987 13.4112 -10.1635 7.51943 31.7062 -11.7203 -0.0 0.0 -0.0 1.73724 21.6613 4.98655 -21.0235 -30.7329 32.9733 2.18731 -47.2896 0.957745 -45.9336 -3.60314 4.45351 -10.0753 20.9448 -68.343 -0.0 0.0 -0.0 13.5964 21.1209 -27.555 -17.9187 23.6819 -60.805 0.702885 19.1976 -0.11887 -10.174 0.467496 -1.21213 5.02246 -5.11647 -38.0535 0.0 0.0 0.0 -24.715 17.8148 21.8401 -18.1163 0.313302 2.75089 12.3739 11.9932 -1.74875 5.69603 -0.0 -0.0 -0.0 0.0 -0.0 18.1576 31.3553 -3.7764 -10.103 -0.282327 -1.52278 5.72825 -14.3466 0.830363 -6.90277 0.0 0.0 0.0 0.0 0.0 
2686.53744338 726.129 -1513.34865509 6.18368501442 61.7834402182 -16.8880829303 -1.69878 1.11672 5.7271 -1.68086 0.750649 5.78628 -1.58635 -0.643926 5.79908 -1.63314 0.278405 5.82798 5.40987 13.4112 -10.1635 7.51943 31.7062 -11.7203 -0.0 0.0 -0.0 1.73724 21.6613 4.98655 -21.0235 -30.7329 32.9733 2.18731 -47.2896 0.957745 -45.9336 -3.60314 4.45351 -10.0753 20.9448 -68.343 -0.0 0.0 -0.0 13.5964 21.1209 -27.555 -17.9187 23.6819 -60.805 0.702885 19.1976 -0.11887 -10.174 0.467496 -1.21213 5.02246 -5.11647 -38.0535 0.0 0.0 0.0 -24.715 17.8148 21.8401 -18.1163 0.313302 2.75089 12.3739 11.9932 -1.74875 5.69603 -0.0 -0.0 -0.0 0.0 -0.0 18.1576 31.3553 -3.7764 -10.103 -0.282327 -1.52278 5.72825 -14.3466 0.830363 -6.90277 0.0 0.0 0.0 0.0 0.0 
2686.96885713 726.129 -1514.57433179 6.06297232763 61.1719441527 -16.7506977046 -1.69878 1.11672 5.7271 -1.68086 0.750649 5.78628 -1.58635 -0.643926 5.79908 -1.63314 0.278405 5.82798 5.40987 13.4112 -10.1635 7.51943 31.7062 -11.7203 -0.0 0.0 -0.0 1.73724 21.6613 4.98655 -21.0235 -30.7329 32.9733 2.18731 -47.2896 0.957745 -45.9336 -3.60314 4.45351 -10.0753 20.9448 -68.343 -0.0 0.0 -0.0 13.5964 21.1209 -27.555 -17.9187 23.6819 -60.805 0.702885 19.1976 -0.11887 -10.174 0.467496 -1.21213 5.02246 -5.11647 -38.0535 0.0 0.0 0.0 -24.715 17.8148 21.8401 -18.1163 0.313302 2.75089 12.3739 11.9932 -1.74875 5.69603 -0.0 -0.0 -0.0 0.0 -0.0 18.1576 31.3553 -3.7764 -10.103 -0.282327 -1.52278 5.72825 -14.3466 0.830363 -6.90277 0.0 0.0 0.0 0.0 0.0 
2687.4341505 726.129 -1515.85131449 5.94234811197 60.5321973535 -16.6125855636 -1.69878 1.11672 5.7271 -1.68086 0.750649 5.78628 -1.58635 -0.643926 5.79908 -1.63314 0.278405 5.82798 5.40987 13.4112 -10.1635 7.51943 31.7062 -11.7203 -0.0 0.0 -0.0 1.73724 21.6613 4.98655 -21.0235 -30.7329 32.9733 2.18731 -47.2896 0.957745 -45.9336 -3.60314 4.45351 -10.0753 20.9448 -68.343 -0.0 0.0 -0.0 13.5964 21.1209 -27.555 -17.9187 23.6819 -60.805 0.702885 19.1976 -0.11887 -10.174 0.467496 -1.21213 5.02246 -5.11647 -38.0535 0.0 0.0 0.0 -24.715 17.8148 21.8401 -18.1163 0.313302 2.75089 12.3739 11.9932 -1.74875 5.69603 -0.0 -0.0 -0.0 0.0 -0.0 18.1576 31.3553 -3.7764 -10.103 -0.282327 -1.52278 5.72825 -14.3466 0.830363 -6.90277 0.0 0.0 0.0 0.0 0.0 
2660.96836878 740.002 -1520.29003926 8.24623567485 59.9110270232 -19.0394714447 -1.87492 1.214 6.03538 -1.85505 0.828222 6.10007 -1.745 -0.659944 6.12048 -1.79709 0.313069 6.14789 5.48445 13.5353 -10.2043 7.63668 31.9439 -11.8008 -0.0 0.0 -0.0 1.38187 22.1652 4.51618 -23.8906 -29.2808 35.5399 1.70339 -40.1545 0.622624 -46.395 -3.65549 4.4812 -9.82225 19.7399 -66.7191 -0.0 0.0 -0.0 13.9367 21.1219 -28.3567 -14.6385 25.0557 -60.9242 0.713098 19.4557 -0.12225 -10.0007 0.45775 -1.19222 4.99777 -5.0966 -37.8366 0.0 0.0 0.0 -24.0486 18.0873 20.2765 -23.0104 0.247755 3.49875 11.6558 12.2001 -1.65197 6.25338 -0.0 -0.0 -0.0 0.0 -0.0 15.2079 30.8629 -3.23778 -11.2711 -0.297534 -1.70136 5.03343 -12.5351 0.728965 -6.97863 0.0 0.0 0.0 0.0 0.0 
